<svg id="ff2abe1d-cd7c-4765-9e67-30d5c97a320b" data-name="Layer 7" xmlns="http://www.w3.org/2000/svg" xmlns:xlink="http://www.w3.org/1999/xlink" viewBox="0 0 1103.6 644.83"><defs><style>.a86794e7-adaf-41eb-a3bc-19512aa7c5d7,.b647fb2e-3e55-425a-8e15-38c389748a83,.b89a19ff-7762-492e-971b-9fafafc865c3,.bfc38b25-60a8-4872-8796-2c1548e290f0,.e92ff4db-3446-4200-a46e-509ecf951c10,.ed232893-75e7-4da8-8608-bcf730b1811a,.f793b731-a040-4fb6-938a-44730ab046a5,.fc987b59-5bf7-4c93-819a-277d61a74bfd,.ff7f7813-03f4-43b0-a54f-b15ab0d0a4df{fill:none;}.f53b017e-2967-4dca-b60f-cd840e3690d7{fill:#fff;}.a86794e7-adaf-41eb-a3bc-19512aa7c5d7,.b647fb2e-3e55-425a-8e15-38c389748a83,.b89a19ff-7762-492e-971b-9fafafc865c3,.e92ff4db-3446-4200-a46e-509ecf951c10,.ed232893-75e7-4da8-8608-bcf730b1811a,.f793b731-a040-4fb6-938a-44730ab046a5,.fc987b59-5bf7-4c93-819a-277d61a74bfd,.ff7f7813-03f4-43b0-a54f-b15ab0d0a4df{stroke:#fff;stroke-miterlimit:10;}.a86794e7-adaf-41eb-a3bc-19512aa7c5d7,.b647fb2e-3e55-425a-8e15-38c389748a83,.b89a19ff-7762-492e-971b-9fafafc865c3,.e92ff4db-3446-4200-a46e-509ecf951c10,.ff7f7813-03f4-43b0-a54f-b15ab0d0a4df{stroke-linecap:round;}.a86794e7-adaf-41eb-a3bc-19512aa7c5d7{stroke-width:7.2px;}.b89a19ff-7762-492e-971b-9fafafc865c3{stroke-width:3.6px;}.babb82a9-0b18-43bc-8980-1302bb7339e7{clip-path:url(#bb4ae007-6db9-47ba-85d7-73c855b1d7dc);}.fc987b59-5bf7-4c93-819a-277d61a74bfd{stroke-width:10.67px;}.ed232893-75e7-4da8-8608-bcf730b1811a,.ff7f7813-03f4-43b0-a54f-b15ab0d0a4df{stroke-width:7.12px;}.e92ff4db-3446-4200-a46e-509ecf951c10{stroke-width:5px;}.f793b731-a040-4fb6-938a-44730ab046a5{stroke-width:12.17px;}.b647fb2e-3e55-425a-8e15-38c389748a83{stroke-width:10.35px;}</style><clipPath id="bb4ae007-6db9-47ba-85d7-73c855b1d7dc" transform="translate(-418.31 -215.17)"><polygon class="bfc38b25-60a8-4872-8796-2c1548e290f0" points="829.09 666.62 747.12 608.91 480.15 603.21 472.6 634.49 379.86 670.38 312.95 263.9 855.52 218.46 829.09 666.62"/></clipPath></defs><title>Space-Discover</title><path class="f53b017e-2967-4dca-b60f-cd840e3690d7" d="M936.36,662c8.37,0,17.61-7,17.61-15.32,0-13.77-18.48-15.69-28.91-19.31-18.39-6.27-34.64-21.36-34.64-41.9A46,46,0,0,1,982,579.07l-30.1,6.36a15.31,15.31,0,0,0-30.61.09c0,13.59,17.21,17.2,27.68,20.31,19,5.49,35.82,20,35.82,41,0,25.44-22.83,46-48.22,46-23.33,0-44.42-17.11-47.85-39.57l30.11-6.41c0,8.42,9.14,15.28,17.65,15.28Z" transform="translate(-418.31 -215.17)"/><path class="f53b017e-2967-4dca-b60f-cd840e3690d7" d="M1017.05,646.37V540.83h53a53,53,0,0,1,53,52.86q0,22.08-15.62,37.24A51.38,51.38,0,0,1,1070,646.37h-22.64v45.29h-30.32Zm53-75.51h-22.64v45.48l22.64.09a22.79,22.79,0,0,0,0-45.57Z" transform="translate(-418.31 -215.17)"/><path class="f53b017e-2967-4dca-b60f-cd840e3690d7" d="M1187.51,610.07l-36.12,81.59h-32.75l68.77-153.92,68.87,153.92h-32.84Z" transform="translate(-418.31 -215.17)"/><path class="f53b017e-2967-4dca-b60f-cd840e3690d7" d="M1345.23,692.68q-31.62-.09-54-22.27-22.46-22.45-22.45-54.07t22.45-54.18q22.56-22.54,54-22.55l-.09.37c23.29,0,41.8,10.35,54.27,22.37L1377.79,584a44.67,44.67,0,0,0-32.47-13.47A43.76,43.76,0,0,0,1313,584a45.86,45.86,0,0,0,0,64.93,46,46,0,0,0,64.94-.09l21.61,21.61A76.17,76.17,0,0,1,1345.23,692.68Z" transform="translate(-418.31 -215.17)"/><path class="f53b017e-2967-4dca-b60f-cd840e3690d7" d="M1520.91,540.45v30.23h-60.63v30.4h45.47v30.23h-45.47v30.4h60.63v30.13h-91V540.45Z" transform="translate(-418.31 -215.17)"/><circle class="a86794e7-adaf-41eb-a3bc-19512aa7c5d7" cx="757.88" cy="95.76" r="31.19"/><path class="b89a19ff-7762-492e-971b-9fafafc865c3" d="M1215.87,307.79c13.44,5.55,21.56,11.4,20.61,15.77-1.64,7.59-30,7.87-63.33.63s-59-19.26-57.35-26.85c.92-4.23,10.16-6.19,24-5.84" transform="translate(-418.31 -215.17)"/><circle class="f53b017e-2967-4dca-b60f-cd840e3690d7" cx="456.44" cy="168.84" r="3.8"/><circle class="f53b017e-2967-4dca-b60f-cd840e3690d7" cx="617.29" cy="92.79" r="3.8"/><circle class="f53b017e-2967-4dca-b60f-cd840e3690d7" cx="624.23" cy="168.63" r="6.63"/><circle class="f53b017e-2967-4dca-b60f-cd840e3690d7" cx="503.75" cy="169.96" r="6.63"/><circle class="f53b017e-2967-4dca-b60f-cd840e3690d7" cx="541.05" cy="97.08" r="9.51"/><circle class="f53b017e-2967-4dca-b60f-cd840e3690d7" cx="565.45" cy="111.37" r="3.8"/><polygon class="f53b017e-2967-4dca-b60f-cd840e3690d7" points="672.33 0 674.83 17.06 691.88 19.56 674.83 22.05 672.33 39.11 669.83 22.05 652.77 19.56 669.83 17.06 672.33 0"/><polygon class="f53b017e-2967-4dca-b60f-cd840e3690d7" points="844.22 55.83 845.83 66.83 856.83 68.45 845.83 70.06 844.22 81.06 842.61 70.06 831.6 68.45 842.61 66.83 844.22 55.83"/><path class="f53b017e-2967-4dca-b60f-cd840e3690d7" d="M514.67,705.81c23.7,0,42.24,9.42,55.11,22.18Q590,748.29,590,781.37t-20.21,53.19q-22.26,22.08-55.11,22.08H474.53V705.91h40.14Zm-.09,30h-9.82v90.57h10.1c27.19,0,44.91-18,44.91-45.29C559.77,754.15,541.75,735.85,514.58,735.85Z" transform="translate(-418.31 -215.17)"/><path class="f53b017e-2967-4dca-b60f-cd840e3690d7" d="M622.25,705.81h30.31V856.64H622.25Z" transform="translate(-418.31 -215.17)"/><path class="f53b017e-2967-4dca-b60f-cd840e3690d7" d="M732.46,827c8.38,0,17.62-7,17.62-15.33,0-13.77-18.48-15.69-28.91-19.3-18.4-6.27-34.64-21.37-34.64-41.9a46,46,0,0,1,91.59-6.37L748,750.42a15.31,15.31,0,0,0-30.61.09c0,13.59,17.21,17.2,27.68,20.31,19,5.49,35.82,20,35.82,41,0,25.43-22.83,46-48.22,46-23.33,0-44.42-17.11-47.85-39.57l30.1-6.4c0,8.42,9.15,15.28,17.66,15.28Z" transform="translate(-418.31 -215.17)"/><path class="f53b017e-2967-4dca-b60f-cd840e3690d7" d="M884,857.67q-31.62-.09-54-22.27-22.46-22.46-22.46-54.08T830,727.15q22.54-22.54,54-22.55l-.09.37c23.29,0,41.81,10.35,54.27,22.36L916.55,749a44.64,44.64,0,0,0-32.46-13.48A43.77,43.77,0,0,0,851.71,749a45.86,45.86,0,0,0,0,64.93,46,46,0,0,0,64.94-.09l21.61,21.61A76.17,76.17,0,0,1,884,857.67Z" transform="translate(-418.31 -215.17)"/><path class="f53b017e-2967-4dca-b60f-cd840e3690d7" d="M1084,727.15q22.54,22.54,22.55,54.17T1084,835.4q-22.46,22.27-54.08,22.27T975.85,835.4q-22.46-22.46-22.46-54.08t22.46-54.17q22.54-22.54,54.08-22.55T1084,727.15Zm-86.55,21.52a45.88,45.88,0,0,0,64.84,64.93,45.88,45.88,0,1,0-64.84-64.93Z" transform="translate(-418.31 -215.17)"/><path class="f53b017e-2967-4dca-b60f-cd840e3690d7" d="M1187.37,860l-68-154.2h32.09l35.84,82.62,35.93-82.62h32.46Z" transform="translate(-418.31 -215.17)"/><path class="f53b017e-2967-4dca-b60f-cd840e3690d7" d="M1378.87,705.44v30.22h-60.63v30.41h45.47v30.22h-45.47V826.7h60.63v30.13h-90.94V705.44Z" transform="translate(-418.31 -215.17)"/><path class="f53b017e-2967-4dca-b60f-cd840e3690d7" d="M1411.13,705.81h49.21c16.79,0,30.37,6.35,39.49,15.35,9.18,9.18,14.59,17.56,14.59,34.24v3.93q0,15.25-9.54,28.73c-5.3,7.41-9.49,10.57-18.06,13.94l35.09,54.64h-37.05l-43.32-66.71v66.71h-30.32Zm72,50.53a20.33,20.33,0,0,0-6-14.5c-3.93-3.83-11.4-6-18.71-6h-17v41.63h11.7v.1h10.1C1474.29,777.58,1483.17,767.84,1483.17,756.34Z" transform="translate(-418.31 -215.17)"/><g class="babb82a9-0b18-43bc-8980-1302bb7339e7"><path class="fc987b59-5bf7-4c93-819a-277d61a74bfd" d="M677,482.38,808.8,517.86a196.5,196.5,0,0,1-138,134.37C565.85,680.16,458.2,617.85,430.3,513.07s34.52-212.38,139.42-240.31A196.49,196.49,0,0,1,756.3,320.7L656.63,420" transform="translate(-418.31 -215.17)"/></g><polygon class="f53b017e-2967-4dca-b60f-cd840e3690d7" points="292.99 181.83 275.97 198.56 294.6 190.36 292.99 181.83"/><polyline class="fc987b59-5bf7-4c93-819a-277d61a74bfd" points="294.76 146.2 307.27 162.08 309.04 187.46 351.27 236.61 321.98 246.61 339.46 291.25"/><path class="ed232893-75e7-4da8-8608-bcf730b1811a" d="M797.67,518.24A185.84,185.84,0,0,0,747.5,326.77" transform="translate(-418.31 -215.17)"/><path class="e92ff4db-3446-4200-a46e-509ecf951c10" d="M761.66,363.56q-3.88-5.7-8.19-11.06" transform="translate(-418.31 -215.17)"/><path class="e92ff4db-3446-4200-a46e-509ecf951c10" d="M791.26,482.75a172.4,172.4,0,0,0-22.35-107.5" transform="translate(-418.31 -215.17)"/><path class="fc987b59-5bf7-4c93-819a-277d61a74bfd" d="M479.09,693.2l.56-87.33h240a67.07,67.07,0,0,1,59.46,36L805.9,693.2" transform="translate(-418.31 -215.17)"/><path class="ff7f7813-03f4-43b0-a54f-b15ab0d0a4df" d="M633.78,354.66A110.22,110.22,0,0,0,512.57,491.39" transform="translate(-418.31 -215.17)"/><ellipse class="f793b731-a040-4fb6-938a-44730ab046a5" cx="619.17" cy="463.74" rx="59.08" ry="59.02" transform="translate(-514.91 -44.87) rotate(-14.54)"/><line class="b647fb2e-3e55-425a-8e15-38c389748a83" x1="230.76" y1="299.87" x2="242.4" y2="319.85"/><line class="b647fb2e-3e55-425a-8e15-38c389748a83" x1="159.31" y1="177.28" x2="171.06" y2="197.44"/></svg>