{
  "accessors": [
    {
      "bufferView": 2,
      "componentType": 5126,
      "count": 65532,
      "max": [
        1.4982199668884277,
        2.1186800003051758,
        0
      ],
      "min": [
        -1.9616700410842896,
        -2.1186800003051758,
        0
      ],
      "type": "VEC3"
    },
    {
      "bufferView": 2,
      "byteOffset": 786384,
      "componentType": 5126,
      "count": 65532,
      "max": [
        0,
        0,
        -1
      ],
      "min": [
        0,
        0,
        -1
      ],
      "type": "VEC3"
    },
    {
      "bufferView": 3,
      "componentType": 5126,
      "count": 65532,
      "max": [
        0.63538455963134766,
        0.99527990818023682,
        0,
        1
      ],
      "min": [
        -0.9571455717086792,
        -0.99527645111083984,
        0,
        1
      ],
      "type": "VEC4"
    },
    {
      "bufferView": 1,
      "componentType": 5126,
      "count": 65532,
      "max": [
        0.99993002414703369,
        0.55023998022079468
      ],
      "min": [
        7.0000001869630069e-05,
        7.0000001869630069e-05
      ],
      "type": "VEC2"
    },
    {
      "bufferView": 0,
      "componentType": 5125,
      "count": 381027,
      "max": [
        65531
      ],
      "min": [
        0
      ],
      "type": "SCALAR"
    },
    {
      "bufferView": 2,
      "byteOffset": 1572768,
      "componentType": 5126,
      "count": 65532,
      "max": [
        2.1187601089477539,
        2.1186800003051758,
        0
      ],
      "min": [
        -2.1185901165008545,
        -1.9573999643325806,
        0
      ],
      "type": "VEC3"
    },
    {
      "bufferView": 2,
      "byteOffset": 2359152,
      "componentType": 5126,
      "count": 65532,
      "max": [
        0,
        0,
        -1
      ],
      "min": [
        0,
        0,
        -1
      ],
      "type": "VEC3"
    },
    {
      "bufferView": 3,
      "byteOffset": 1048512,
      "componentType": 5126,
      "count": 65532,
      "max": [
        0.99528747797012329,
        0.99526208639144897,
        0,
        1
      ],
      "min": [
        -0.99527823925018311,
        -0.88235455751419067,
        0,
        1
      ],
      "type": "VEC4"
    },
    {
      "bufferView": 1,
      "byteOffset": 524256,
      "componentType": 5126,
      "count": 65532,
      "max": [
        0.99993002414703369,
        0.55023998022079468
      ],
      "min": [
        7.0000001869630069e-05,
        7.0000001869630069e-05
      ],
      "type": "VEC2"
    },
    {
      "bufferView": 0,
      "byteOffset": 1524108,
      "componentType": 5125,
      "count": 380268,
      "max": [
        65531
      ],
      "min": [
        0
      ],
      "type": "SCALAR"
    },
    {
      "bufferView": 2,
      "byteOffset": 3145536,
      "componentType": 5126,
      "count": 4414,
      "max": [
        1.7617000341415405,
        1.7274600267410278,
        0
      ],
      "min": [
        -0.26771000027656555,
        0.75555998086929321,
        0
      ],
      "type": "VEC3"
    },
    {
      "bufferView": 2,
      "byteOffset": 3198504,
      "componentType": 5126,
      "count": 4414,
      "max": [
        0,
        0,
        -1
      ],
      "min": [
        0,
        0,
        -1
      ],
      "type": "VEC3"
    },
    {
      "bufferView": 3,
      "byteOffset": 2097024,
      "componentType": 5126,
      "count": 4414,
      "max": [
        0.77361172437667847,
        0.99526208639144897,
        0,
        1
      ],
      "min": [
        -0.098729893565177917,
        0.63365989923477173,
        0,
        1
      ],
      "type": "VEC4"
    },
    {
      "bufferView": 1,
      "byteOffset": 1048512,
      "componentType": 5126,
      "count": 4414,
      "max": [
        0.99993002414703369,
        0.54996997117996216
      ],
      "min": [
        7.0000001869630069e-05,
        7.0000001869630069e-05
      ],
      "type": "VEC2"
    },
    {
      "bufferView": 0,
      "byteOffset": 3045180,
      "componentType": 5125,
      "count": 25137,
      "max": [
        4413
      ],
      "min": [
        0
      ],
      "type": "SCALAR"
    },
    {
      "bufferView": 2,
      "byteOffset": 3251472,
      "componentType": 5126,
      "count": 65532,
      "max": [
        2.0371499061584473,
        1.8200299739837646,
        2.0371499061584473
      ],
      "min": [
        -2.0371599197387695,
        -1.8200299739837646,
        -2.0371499061584473
      ],
      "type": "VEC3"
    },
    {
      "bufferView": 2,
      "byteOffset": 4037856,
      "componentType": 5126,
      "count": 65532,
      "max": [
        1,
        1,
        1
      ],
      "min": [
        -1,
        -1,
        -1
      ],
      "type": "VEC3"
    },
    {
      "bufferView": 3,
      "byteOffset": 2167648,
      "componentType": 5126,
      "count": 65532,
      "max": [
        1,
        0.056695409119129181,
        1,
        1
      ],
      "min": [
        -1,
        -0.057759542018175125,
        -1,
        -1
      ],
      "type": "VEC4"
    },
    {
      "bufferView": 1,
      "byteOffset": 1083824,
      "componentType": 5126,
      "count": 65532,
      "max": [
        1.25,
        0.99681001901626587
      ],
      "min": [
        4.9999998736893758e-05,
        0.00083999999333173037
      ],
      "type": "VEC2"
    },
    {
      "bufferView": 0,
      "byteOffset": 3145728,
      "componentType": 5125,
      "count": 389436,
      "max": [
        65531
      ],
      "min": [
        0
      ],
      "type": "SCALAR"
    },
    {
      "bufferView": 2,
      "byteOffset": 4824240,
      "componentType": 5126,
      "count": 684,
      "max": [
        0.16955000162124634,
        1.8194899559020996,
        1.7259900569915771
      ],
      "min": [
        -1.7338199615478516,
        -1.0659400224685669,
        -0.12658999860286713
      ],
      "type": "VEC3"
    },
    {
      "bufferView": 2,
      "byteOffset": 4832448,
      "componentType": 5126,
      "count": 684,
      "max": [
        0.074401088058948517,
        0.99982130527496338,
        0.81919687986373901
      ],
      "min": [
        -0.82291322946548462,
        -0.62904489040374756,
        -0.055540814995765686
      ],
      "type": "VEC3"
    },
    {
      "bufferView": 3,
      "byteOffset": 3216160,
      "componentType": 5126,
      "count": 684,
      "max": [
        0.99946320056915283,
        0.054819453507661819,
        1,
        1
      ],
      "min": [
        -0.99877172708511353,
        -0.054686523973941803,
        -0.9999920129776001,
        -1
      ],
      "type": "VEC4"
    },
    {
      "bufferView": 1,
      "byteOffset": 1608080,
      "componentType": 5126,
      "count": 684,
      "max": [
        1.25,
        0.99936997890472412
      ],
      "min": [
        0.0020600000862032175,
        0.35664001107215881
      ],
      "type": "VEC2"
    },
    {
      "bufferView": 0,
      "byteOffset": 4703472,
      "componentType": 5125,
      "count": 2244,
      "max": [
        683
      ],
      "min": [
        0
      ],
      "type": "SCALAR"
    }
  ],
  "asset": {
    "extras": {
      "author": "kongle (https://sketchfab.com/minecraftnorge)",
      "license": "CC-BY-SA-4.0 (http://creativecommons.org/licenses/by-sa/4.0/)",
      "source": "https://sketchfab.com/models/81bcb0c25c4f4e03bb7387e7bfbd44f7",
      "title": "Saturn with rings HD"
    },
    "generator": "Sketchfab-3.20.7",
    "version": "2.0"
  },
  "bufferViews": [
    {
      "buffer": 0,
      "byteLength": 4712448,
      "byteOffset": 0,
      "name": "floatBufferViews",
      "target": 34963
    },
    {
      "buffer": 0,
      "byteLength": 1613552,
      "byteOffset": 4712448,
      "byteStride": 8,
      "name": "floatBufferViews",
      "target": 34962
    },
    {
      "buffer": 0,
      "byteLength": 4840656,
      "byteOffset": 6326000,
      "byteStride": 12,
      "name": "floatBufferViews",
      "target": 34962
    },
    {
      "buffer": 0,
      "byteLength": 3227104,
      "byteOffset": 11166656,
      "byteStride": 16,
      "name": "floatBufferViews",
      "target": 34962
    }
  ],
  "buffers": [
    {
      "byteLength": 14393760,
      "uri": "scene.bin"
    }
  ],
  "images": [
    {
      "uri": "textures/Saturn_baseColor.jpeg"
    },
    {
      "uri": "textures/Material.001_baseColor.png"
    }
  ],
  "materials": [
    {
      "doubleSided": true,
      "emissiveFactor": [
        0,
        0,
        0
      ],
      "name": "Saturn",
      "pbrMetallicRoughness": {
        "baseColorFactor": [
          1,
          1,
          1,
          1
        ],
        "baseColorTexture": {
          "index": 0,
          "texCoord": 0
        },
        "metallicFactor": 0,
        "roughnessFactor": 0.59999999999999998
      }
    },
    {
      "alphaMode": "BLEND",
      "doubleSided": true,
      "name": "Material.001",
      "pbrMetallicRoughness": {
        "baseColorFactor": [
          1,
          1,
          1,
          1
        ],
        "baseColorTexture": {
          "index": 1,
          "texCoord": 0
        },
        "metallicFactor": 0,
        "roughnessFactor": 0.59999999999999998
      }
    }
  ],
  "meshes": [
    {
      "name": "Circle",
      "primitives": [
        {
          "attributes": {
            "NORMAL": 1,
            "POSITION": 0,
            "TANGENT": 2,
            "TEXCOORD_0": 3
          },
          "indices": 4,
          "material": 1,
          "mode": 4
        }
      ]
    },
    {
      "name": "Circle",
      "primitives": [
        {
          "attributes": {
            "NORMAL": 6,
            "POSITION": 5,
            "TANGENT": 7,
            "TEXCOORD_0": 8
          },
          "indices": 9,
          "material": 1,
          "mode": 4
        }
      ]
    },
    {
      "name": "Circle",
      "primitives": [
        {
          "attributes": {
            "NORMAL": 11,
            "POSITION": 10,
            "TANGENT": 12,
            "TEXCOORD_0": 13
          },
          "indices": 14,
          "material": 1,
          "mode": 4
        }
      ]
    },
    {
      "name": "Sphere",
      "primitives": [
        {
          "attributes": {
            "NORMAL": 16,
            "POSITION": 15,
            "TANGENT": 17,
            "TEXCOORD_0": 18
          },
          "indices": 19,
          "material": 0,
          "mode": 4
        }
      ]
    },
    {
      "name": "Sphere",
      "primitives": [
        {
          "attributes": {
            "NORMAL": 21,
            "POSITION": 20,
            "TANGENT": 22,
            "TEXCOORD_0": 23
          },
          "indices": 24,
          "material": 0,
          "mode": 4
        }
      ]
    }
  ],
  "nodes": [
    {
      "children": [
        1
      ],
      "name": "RootNode (gltf orientation matrix)",
      "rotation": [
        -0.70710678118654746,
        -0,
        -0,
        0.70710678118654757
      ]
    },
    {
      "children": [
        2
      ],
      "name": "RootNode (model correction matrix)"
    },
    {
      "children": [
        3,
        5,
        9,
        11
      ],
      "name": "Root"
    },
    {
      "children": [
        4
      ],
      "matrix": [
        -0.29086000000000006,
        0.95517000000000007,
        -0.05519000000000001,
        0,
        -0.77110000000000001,
        -0.19988000000000003,
        0.60452000000000006,
        0,
        0.56639000000000006,
        0.21839000000000003,
        0.7946700000000001,
        0,
        4.0762500000000008,
        1.00545,
        5.9038600000000008,
        1
      ],
      "name": "Lamp"
    },
    {
      "name": "Lamp"
    },
    {
      "children": [
        6,
        7,
        8
      ],
      "matrix": [
        0.40565000000000001,
        2.1683300000000005,
        -0.0040100000000000005,
        0,
        -2.1683300000000005,
        0.40565000000000001,
        -0.00023000000000000006,
        0,
        0.00051000000000000015,
        0.0039900000000000014,
        2.2059500000000001,
        0,
        -0.0048400000000000014,
        -0.036270000000000004,
        0,
        1
      ],
      "name": "Circle"
    },
    {
      "mesh": 0,
      "name": "Circle"
    },
    {
      "mesh": 1,
      "name": "Circle"
    },
    {
      "mesh": 2,
      "name": "Circle"
    },
    {
      "children": [
        10
      ],
      "matrix": [
        1,
        0,
        0,
        0,
        0,
        1,
        0,
        0,
        0,
        0,
        1,
        0,
        0.80076000000000003,
        -1.5804100000000001,
        -0.33315000000000006,
        1
      ],
      "name": "Point"
    },
    {
      "name": "Point"
    },
    {
      "children": [
        12,
        13
      ],
      "matrix": [
        1,
        0,
        0,
        0,
        0,
        -0,
        1,
        0,
        0,
        -1,
        -0,
        0,
        0,
        0,
        0,
        1
      ],
      "name": "Sphere"
    },
    {
      "mesh": 3,
      "name": "Sphere"
    },
    {
      "mesh": 4,
      "name": "Sphere"
    }
  ],
  "samplers": [
    {
      "magFilter": 9729,
      "minFilter": 9987,
      "wrapS": 10497,
      "wrapT": 10497
    }
  ],
  "scene": 0,
  "scenes": [
    {
      "name": "OSG_Scene",
      "nodes": [
        0
      ]
    }
  ],
  "textures": [
    {
      "sampler": 0,
      "source": 0
    },
    {
      "sampler": 0,
      "source": 1
    }
  ]
}

